<?xml version="1.0" encoding="utf-8"?>
<!-- Generator: Adobe Illustrator 22.1.0, SVG Export Plug-In . SVG Version: 6.00 Build 0)  -->
<svg version="1.1" id="Слой_1" xmlns="http://www.w3.org/2000/svg" xmlns:xlink="http://www.w3.org/1999/xlink" x="0px" y="0px"
	 viewBox="0 0 1920 1080" style="enable-background:new 0 0 1920 1080;" xml:space="preserve">
<style type="text/css">
	.st0{opacity:0.33;}
	.st1{fill:none;stroke:#000000;stroke-width:9;stroke-miterlimit:10;}
	.st2{fill:none;stroke:#000000;stroke-width:19;stroke-miterlimit:10;}
	.st3{fill:#FBB03B;}
	.st4{fill:#0D007C;}
	.st5{opacity:0.75;}
	.st6{fill:#F15A24;}
	.st7{fill:#F18224;}
	.st8{fill:#F1A324;}
	.st9{fill:#F1EA24;}
	.st10{fill:#F1F924;}
	.st11{opacity:0.4;}
	.st12{fill:#FFFFFF;}
</style>
<ellipse class="st0" cx="1138.6" cy="985.3" rx="437.5" ry="77"/>
<path class="st1" d="M923.4,102.2"/>
<path class="st2" d="M994,544.8c2.9-6.4-35.2-3.6-31.8-15.3c4.6-16,14.5-101,39.2-173.4c18-52.9-37.9-48.4-20.1-141.2"/>
<g>
	<path class="st3" d="M645.1,908.3"/>
</g>
<g>
	<path class="st4" d="M1000.3,1001.7c-43.8,0-86.3-8.6-126.3-25.7c-118.9-50.8-195.8-167.1-195.8-296.5c0-86.1,33.5-167,94.4-227.8
		c60.8-60.8,141.7-94.4,227.7-94.4c10.2,0,20.3,0.5,30.4,1.5c69.7,6.5,134,34.9,186,82c32.9,29.9,58.9,65.6,77.3,106
		c19,41.7,28.5,86.4,28.5,132.7c0,86.1-33.5,167-94.4,227.8S1086.4,1001.7,1000.3,1001.7z"/>
	<path d="M1000.3,360.5c10,0,20.1,0.5,30,1.3c34.7,3.2,68.3,12,100,26.2c30.9,13.8,59.1,32.3,84.3,55.1
		c32.6,29.6,58.4,64.9,76.4,104.9c18.7,41.4,28.3,85.6,28.3,131.5c0,43.1-8.4,84.8-25.1,124.2c-16.1,38-39.1,72.1-68.4,101.4
		c-29.3,29.3-63.4,52.3-101.4,68.4c-39.4,16.7-81.1,25.1-124.2,25.1c-43.4,0-85.5-8.6-125.1-25.5c-56.8-24.2-105.1-64.2-139.7-115.6
		c-35.4-52.6-54.2-114.2-54.2-178c0-43.1,8.4-84.8,25.1-124.2c16.1-38,39.1-72.1,68.4-101.4c29.3-29.3,63.4-52.3,101.4-68.4
		C915.5,369,957.2,360.5,1000.3,360.5 M1000.3,354.3C820.7,354.3,675,499.9,675,679.5c0,134.4,81.5,249.6,197.7,299.3
		c39.2,16.8,82.2,26,127.5,26c179.6,0,325.3-145.6,325.3-325.3c0-95.5-41.1-181.4-106.8-240.9c-50.7-46-115.9-76.1-187.9-82.9
		C1020.8,354.8,1010.7,354.3,1000.3,354.3L1000.3,354.3z"/>
</g>
<g class="st5">
	<path d="M1304.5,792c-63.3,168.1-250.9,253.1-419,189.9c-78.7-29.6-139.2-86.5-174.8-155.9c30.8,29.4,67.8,53.3,110.2,69.2
		c168.1,63.3,321.2-33,384.4-201.1c33.6-89.4,59.9-173,19.5-251.8C1316.2,529.6,1351.9,666.2,1304.5,792z"/>
</g>
<path class="st6" d="M1044.3,248.1l-52.4-12c-4.4-1-8.8,0.2-12.1,3.2l-39.6,36.4c-8.2,7.6-21.5,2.4-22.5-8.7l-4.8-53.6
	c-0.4-4.5-2.9-8.4-6.8-10.6l-46.8-26.4c-9.7-5.5-8.9-19.7,1.3-24.1l49.4-21c4-1.8,7-5.4,7.9-9.7l10.7-52.7c2.2-11,16-14.6,23.3-6.2
	l35.3,40.5c2.9,3.3,7.3,5.1,11.7,4.6l53.5-6.1c11.1-1.2,18.9,10.7,13.1,20.3l-27.7,46.1c-2.3,3.8-2.5,8.5-0.7,12.5l22.4,48.9
	C1064.2,239.5,1055.2,250.6,1044.3,248.1z"/>
<path class="st7" d="M991.5,289l-37.2-38.8c-3.1-3.2-7.5-4.7-11.9-3.9l-53,8.6c-11,1.8-19.3-9.8-14-19.7l25.4-47.3
	c2.1-3.9,2.2-8.6,0.1-12.5l-24.7-47.8c-5.1-9.9,3.4-21.3,14.4-19.4l52.9,9.5c4.4,0.8,8.8-0.6,11.9-3.7l37.8-38.2
	c7.9-7.9,21.3-3.4,22.9,7.7l7.3,53.2c0.6,4.4,3.3,8.2,7.3,10.2l48,24.2c9.9,5,9.8,19.3-0.2,24.1l-48.4,23.4c-4,2-6.7,5.7-7.5,10
	l-8.2,53.1C1012.7,292.8,999.2,297.1,991.5,289z"/>
<path class="st8" d="M947.3,282.9l-17.2-51c-1.5-4.2-4.8-7.5-9.1-8.6l-51.7-14.7c-10.8-3-13.3-17.1-4.4-23.7l43.1-32.1
	c3.5-2.7,5.6-6.8,5.4-11.3l-2-53.8c-0.3-11.1,12.2-17.9,21.3-11.4l43.8,31.1c3.6,2.6,8.3,3.2,12.4,1.7l50.4-18.5
	c10.5-3.8,20.8,6,17.5,16.7l-16.1,51.3c-1.3,4.2-0.5,8.8,2.3,12.3l33.1,42.3c6.8,8.8,0.7,21.6-10.5,21.8l-53.8,0.6
	c-4.5,0-8.6,2.3-11,5.9L971.2,286C965,295.3,950.9,293.5,947.3,282.9z"/>
<path class="st9" d="M961.3,230.5l-8-23.5c-0.6-2-2.2-3.4-4.1-3.9l-23.8-6.7c-5-1.5-6.1-7.9-2-11l19.9-14.8c1.7-1.2,2.6-3.2,2.5-5.2
	l-0.9-24.8c-0.2-5.2,5.6-8.3,9.7-5.3l20.2,14.3c1.7,1.1,3.8,1.5,5.7,0.7l23.3-8.5c4.9-1.8,9.6,2.8,8.1,7.7l-7.4,23.6
	c-0.6,2-0.2,4,1,5.7l15.3,19.5c3.2,4,0.3,9.9-4.8,10l-24.8,0.3c-2.1,0-3.9,1-5.1,2.8l-14,20.5C969.5,236.2,963,235.4,961.3,230.5z"
	/>
<path class="st10" d="M945.1,217.3l3.3-24.6c0.3-2.1-0.5-4-2-5.4l-18.3-16.7c-3.8-3.4-2-9.7,3-10.7l24.3-4.5c2-0.4,3.7-1.7,4.6-3.5
	l10.2-22.6c2.1-4.7,8.7-5,11.1-0.4l11.8,21.8c0.9,1.8,2.8,3,4.8,3.2l24.7,2.7c5.1,0.5,7.4,6.7,3.8,10.5l-17.1,17.9
	c-1.5,1.5-2,3.5-1.6,5.6l5.1,24.2c1,5.1-4.1,9.1-8.7,6.8l-22.4-10.7c-1.9-0.9-4-0.8-5.8,0.2l-21.4,12.3
	C949.8,226.1,944.4,222.4,945.1,217.3z"/>
<g class="st11">
	<path class="st12" d="M1137.2,476.1c-6.5,1.5-12.7,2.4-18.9,3.2c-3.1,0.6-6.1,1-9.1,1.6c-3,0.5-5.9,0.7-8.9,1.3
		c-2.9,0.5-5.8,1-8.7,1.5s-5.7,0.8-8.5,1.3c-2.8,0.5-5.6,1-8.4,1.5l-4.1,0.6l-4.1,0.8c-21.8,4.1-41.8,8.8-60.8,14.4
		c-2.4,0.6-4.7,1.5-7,2.2c-2.3,0.7-4.7,1.5-6.9,2.1c-2.3,0.7-4.6,1.6-6.8,2.3c-1.1,0.3-2.3,0.7-3.4,1c-1.1,0.3-2.3,0.6-3.4,1
		c-2.3,0.8-4.5,1.6-6.7,2.2c-1.1,0.3-2.3,0.7-3.4,1c-1.1,0.4-2.2,0.8-3.3,1.1c-2.2,0.7-4.5,1.5-6.7,2.2c-0.5,0.2-1.1,0.3-1.7,0.5
		l-1.7,0.6l-3.3,1.1c-2.2,0.7-4.5,1.5-6.7,2.2c-2.2,0.8-4.4,1.7-6.6,2.5c-4.6,1.5-8.8,3.5-13.2,5.3c-2.3,0.8-4.4,2-6.4,3l-6.4,3.1
		c-2.1,1.1-4.1,2.4-6.2,3.5l-3.1,1.9c-1,0.6-2.1,1.1-3.1,1.9c-16.3,10.5-31.7,22.9-46.6,36.8s-29.3,29.5-42.4,46.8
		c-13.1,17.3-25.1,36.2-36.3,56c-2.7,5-5.5,10-8.2,15.1l-7.9,15.4l-2,3.9l-1.9,3.8c-1.2,2.6-2.4,5.2-3.6,7.9
		c-1.2,2.7-2.4,5.4-3.5,8.1c-1.1,2.7-2.3,5.5-3.4,8.2l-5.9-0.8c-0.3-3-0.5-6-0.8-9c-0.2-3-0.3-6-0.4-9.1c-0.1-3-0.1-6.1,0-9.2
		c0-1.6,0.1-3.1,0.1-4.7l0.2-4.6c0.4-6,0.7-12.1,1.2-18.1c0.7-6,1.5-12.1,2.2-18.1c3.5-24.2,9.2-48.5,17.7-72.2
		c8.5-23.7,19.4-47.3,33.9-69.4c1.9-2.7,3.6-5.5,5.5-8.2c2-2.6,3.9-5.3,6-8l3-3.9l1.6-2l1.7-1.9c2.2-2.5,4.4-5.1,6.6-7.6l3.3-3.7
		c1.1-1.2,2.4-2.4,3.5-3.6c2.4-2.4,4.8-4.8,7.1-7.1c1.2-1.1,2.4-2.4,3.6-3.5l3.8-3.3l7.7-6.7c1.2-1.1,2.6-2.2,3.9-3.2l4-3.1
		c2.7-2.1,5.4-4.2,8.1-6.2l8.4-5.9c2.8-2,5.6-3.9,8.6-5.7c5.9-3.6,11.7-7.4,17.8-10.5c3-1.7,6.1-3.2,9.2-4.8
		c3.1-1.5,6.3-2.8,9.5-4.2l4.8-2c1.6-0.6,3.2-1.3,4.9-1.9c3.3-1.1,6.5-2.2,9.8-3.2c1.7-0.5,3.3-1,5-1.6c1.7-0.4,3.3-0.8,5.1-1.2
		c3.3-0.8,6.7-1.6,10.2-2.2c0.8-0.2,1.7-0.4,2.6-0.5l2.6-0.4c1.7-0.2,3.4-0.5,5.1-0.7c1.7-0.2,3.4-0.4,5.1-0.6
		c1.7-0.2,3.4-0.4,5.1-0.5c3.4-0.2,6.8-0.3,10.3-0.4c3.4-0.1,6.8-0.2,10.3-0.1c27.2,0.6,53.9,6.1,78.2,16.1c1.6,0.6,3,1.2,4.6,1.9
		l4.5,2.1c3,1.5,5.9,2.8,8.8,4.4c2.9,1.3,5.7,3.1,8.6,4.8c2.8,1.7,5.6,3.3,8.3,5.1c5.5,3.6,10.7,7.5,15.7,11.5
		c5.1,4.2,9.8,8.6,14.4,13.5L1137.2,476.1z"/>
</g>
</svg>
