<?xml version="1.0" encoding="utf-8"?>
<!-- Generator: Adobe Illustrator 22.1.0, SVG Export Plug-In . SVG Version: 6.00 Build 0)  -->
<svg version="1.1" xmlns="http://www.w3.org/2000/svg" xmlns:xlink="http://www.w3.org/1999/xlink" x="0px" y="0px"
	 viewBox="0 0 100 100" style="enable-background:new 0 0 100 100;" xml:space="preserve">
<style type="text/css">
	.st0{opacity:0.3;}
	.st1{fill:none;stroke:#000000;stroke-miterlimit:10;}
	.st2{fill:url(#SVGID_1_);}
	.st3{fill:#FF7658;}
	.st4{fill:#FF5C0A;}
	.st5{fill:#FF6C6D;}
	.st6{fill:#FFFF64;}
	.st7{fill:#FFFFB2;}
	.st8{fill:#FFFFFF;}
</style>
<g id="Слой_2">
	<polygon class="st0" points="47.1,25 49.7,29 54.5,29.1 51.5,32.9 51.5,32.9 52.9,37.5 52.9,37.5 48.4,35.8 44.5,38.6 44.7,33.8 
		40.9,30.9 40.9,30.9 45.5,29.6 45.5,29.6 47.1,25 	"/>
	<path class="st0" d="M49.9,25l1,4.8l4.4,1.7c0,0,0,0,0,0l-4.1,2.6c0,0,0,0,0,0l-0.3,5c0,0,0,0,0,0l-3.6-3.2l-4.6,1.3l1.9-4.6
		c0,0,0,0,0,0l-2.5-4.1c0,0,0,0,0,0l4.7,0.3L49.9,25z"/>
	<path class="st0" d="M53.5,26.9l-1.9,4.8l2.8,4c0,0,0,0,0,0l-5,0l-1.6,3.4c-0.1,0.2-0.4,0.1-0.5-0.1L45,35.1l-4.7-1.4c0,0,0,0,0,0
		l4.2-3c0,0,0,0,0,0l0.2-5c0,0,0,0,0,0l3.8,2.9L53.5,26.9z"/>
	<path class="st0" d="M51.6,32.1l-1.8,1.2l1.6,1.7c0,0.1-0.1,0.1-0.2,0.1l-3.3-0.9l-2,0.4c-0.1,0-0.2-0.1-0.2-0.2l0.8-1.5l-0.8-2.2
		c-0.1-0.1,0-0.2,0.1-0.2l1.7,0.7l1.3-1.6c0.1-0.1,0.2-0.1,0.2,0l0.6,1.8l2,0.5C51.7,31.9,51.7,32,51.6,32.1z"/>
	<path class="st0" d="M50.8,30.1L50,32.2l1,1.4c0.1,0.1,0,0.2-0.1,0.2L49,34.1l-1.5,1.6c-0.1,0.1-0.2,0.1-0.2,0L47,34.1l-2-1.3
		c-0.1,0-0.1-0.1,0-0.2l1.8-0.6l0.1-2.3l1.8,1.2l2-0.9C50.7,30,50.8,30,50.8,30.1z"/>
	<path class="st0" d="M50.1,33.1l-1.1,0.2c0,0,0,0,0,0l-0.3,0.8c0,0-0.1,0-0.1,0L48,33.4c0,0,0,0,0,0l-1-0.2c-0.1,0-0.1-0.1,0-0.1
		l0.6-0.5c0,0,0,0,0,0l0-1.2c0,0,0-0.1,0.1-0.1l0.7,0.6c0,0,0,0,0.1,0l0.9-0.5c0,0,0.1,0,0.1,0.1l0,0.9c0,0,0,0,0,0L50.1,33.1
		C50.2,33,50.2,33.1,50.1,33.1z"/>
</g>
<g id="Слой_1">
	<path class="st1" d="M45.4,31.9c5.8,6.2,6.1,13.9,0.7,19.1"/>
	
		<radialGradient id="SVGID_1_" cx="48.5048" cy="57.5604" r="32.576" gradientTransform="matrix(1.0732 1.891932e-03 -2.265676e-03 1.1158 -2.2638 -6.7685)" gradientUnits="userSpaceOnUse">
		<stop  offset="0" style="stop-color:#FFFFFF"/>
		<stop  offset="1.038748e-02" style="stop-color:#FBFBFA"/>
		<stop  offset="0.182" style="stop-color:#B8B5AD"/>
		<stop  offset="0.3044" style="stop-color:#8E897D"/>
		<stop  offset="0.365" style="stop-color:#7E786B"/>
		<stop  offset="0.4203" style="stop-color:#6A655A"/>
		<stop  offset="0.5406" style="stop-color:#44413A"/>
		<stop  offset="0.6603" style="stop-color:#262421"/>
		<stop  offset="0.7779" style="stop-color:#11100E"/>
		<stop  offset="0.8923" style="stop-color:#040404"/>
		<stop  offset="1" style="stop-color:#000000"/>
	</radialGradient>
	<path class="st2" d="M68.9,59.5c0,1.9-0.3,3.7-0.9,5.5c-2.5,7.1-10.1,12.3-18.2,12.3c-16.6,0-25.8-20.1-13-30.6
		c1.5-1.3,3.4-2.5,3.6-4.4c0.1-0.7-0.1-1.5,0.5-1.9c0.3-0.3,0.8-0.3,1.2-0.3c5.2,0,10.3,0,15.5,0c0.5,0,1,0,1.3,0.3
		c0.6,0.5,0.4,1.3,0.4,2.1c0.1,1.5,1.6,2.5,2.9,3.5C66.5,49.3,68.9,54.4,68.9,59.5z"/>
	<polygon class="st3" points="47.3,25.7 49.6,29.3 53.9,29.4 51.3,32.8 51.3,32.8 52.5,36.9 52.5,36.9 48.5,35.4 44.9,37.9 
		45.1,33.6 41.7,31 41.7,31 45.9,29.8 45.9,29.8 47.3,25.7 	"/>
	<path class="st4" d="M49.8,25.7l0.9,4.3l4,1.6c0,0,0,0,0,0L51.1,34c0,0,0,0,0,0l-0.3,4.5c0,0,0,0,0,0l-3.2-2.9l-4.2,1.2l1.7-4.1
		c0,0,0,0,0,0L42.8,29c0,0,0,0,0,0l4.3,0.3L49.8,25.7z"/>
	<path class="st5" d="M53,27.4l-1.7,4.3l2.5,3.5c0,0,0,0,0,0l-4.5,0l-1.4,3c-0.1,0.2-0.4,0.1-0.5-0.1l-2-3.5l-4.2-1.3c0,0,0,0,0,0
		l3.8-2.7c0,0,0,0,0,0l0.2-4.5c0,0,0,0,0,0l3.4,2.6L53,27.4z"/>
	<path class="st6" d="M51.3,32.1l-1.6,1l1.4,1.5c0,0.1-0.1,0.1-0.2,0.1L48,33.9l-1.8,0.3c-0.1,0-0.2-0.1-0.1-0.1l0.7-1.3l-0.7-2
		c0-0.1,0-0.1,0.1-0.1l1.5,0.6l1.2-1.4c0-0.1,0.1,0,0.2,0l0.5,1.6l1.8,0.5C51.4,31.9,51.4,32,51.3,32.1z"/>
	<path class="st7" d="M50.6,30.3l-0.7,1.9l0.9,1.3c0,0.1,0,0.2-0.1,0.2L49,33.9l-1.3,1.5c-0.1,0.1-0.2,0.1-0.2,0l-0.3-1.5l-1.8-1.1
		c-0.1,0-0.1-0.1,0-0.2L47,32l0-2.1l1.6,1.1l1.8-0.8C50.5,30.1,50.6,30.2,50.6,30.3z"/>
	<path class="st8" d="M50,33l-0.9,0.2c0,0,0,0,0,0l-0.3,0.7c0,0-0.1,0-0.1,0l-0.6-0.6c0,0,0,0,0,0L47.1,33c-0.1,0-0.1-0.1,0-0.1
		l0.6-0.5c0,0,0,0,0,0l0-1c0,0,0-0.1,0.1-0.1l0.6,0.6c0,0,0,0,0,0l0.8-0.4c0,0,0.1,0,0.1,0l0,0.8c0,0,0,0,0,0L50,33
		C50.1,32.9,50.1,33,50,33z"/>
</g>
</svg>
