<?xml version="1.0" encoding="utf-8"?>
<!-- Generator: Adobe Illustrator 26.3.1, SVG Export Plug-In . SVG Version: 6.00 Build 0)  -->
<svg version="1.1" id="Layer_1" xmlns="http://www.w3.org/2000/svg" xmlns:xlink="http://www.w3.org/1999/xlink" x="0px" y="0px"
	 viewBox="0 0 32 32" style="enable-background:new 0 0 32 32;" xml:space="preserve">
<path d="M31.66,24.27c-1.19-2.25-5.3-4.69-5.48-4.8c-0.53-0.3-1.08-0.46-1.6-0.46c-0.77,0-1.4,0.35-1.78,1
	c-0.6,0.72-1.35,1.57-1.53,1.7c-1.4,0.96-2.5,0.85-3.72-0.37l-6.78-6.82c-1.21-1.21-1.32-2.33-0.37-3.73
	c0.13-0.18,0.97-0.93,1.69-1.54c0.46-0.27,0.77-0.68,0.91-1.18c0.18-0.67,0.05-1.45-0.38-2.21c-0.1-0.18-2.53-4.31-4.77-5.5
	C7.43,0.12,6.96,0,6.48,0C5.71,0,4.97,0.3,4.42,0.86l-1.5,1.51C0.55,4.74-0.3,7.44,0.37,10.38c0.56,2.45,2.21,5.06,4.89,7.75
	l8.68,8.72c3.39,3.41,6.63,5.14,9.61,5.14l0,0c2.2,0,4.24-0.94,6.09-2.79l1.5-1.51C32.05,26.79,32.26,25.41,31.66,24.27z"/>
</svg>
