<svg version="1.1" id="dnipro-m-logo" xmlns="http://www.w3.org/2000/svg" x="0" y="0" viewBox="0 0 288 72.5" xml:space="preserve" width="281" height="66"><style>.st1{fill:#ff2f00}</style><path id="XMLID_46_" fill="#fff" d="M271.8 15.7L257.7 1.8v28.1h7.9v-10l6.1 6.1.2.2 6.2-6.3v10h7.9V1.8z"/><path id="XMLID_114_" class="st1" d="M22.6 9.5h-3.7L44 34.4l.1-.4c.2-1.2.2-2.3.2-3.4 0-4.7-1.7-11.1-5.6-14.8-4.6-4.3-9.7-6.3-16.1-6.3z"/><path id="XMLID_115_" class="st1" d="M32.7 36.5c-2.2 3.4-6.7 5.7-11 5.7h-6V19.3l-11-11v43.9H22c7.2 0 12-1.8 16.6-6.2.6-.6 1.1-1.2 1.7-2.1l.1-.1-7.6-7.6-.1.3z"/><path id="XMLID_116_" class="st1" d="M133.6 9.5h-10.8v6.9l11 11v-8h4.6c4.3 0 5.7.1 7 1.5 1.5 1.6 1.6 3.7 1.6 4.1 0 1.3-.1 2.8-1.5 4.2-1.5 1.5-3.9 2.6-6.6 2.9l-.4.1 7.4 7.3.1.1h.1c3.2-.6 5.5-1.6 7.5-3.5 4-3.8 4.6-7.9 4.6-11.5 0-1.1-.2-6.8-4.7-11-4.3-4.1-8.9-4.1-19.9-4.1z"/><path id="XMLID_117_" class="st1" d="M122.7 52.2h11.1v-12l-11.1-11z"/><path id="XMLID_118_" class="st1" d="M101.8 43.9l11.1 10.9V19.4l-11.1-11z"/><path id="XMLID_120_" class="st1" d="M91.5 9.5H80.4v13.1l11.1 11z"/><path id="XMLID_121_" class="st1" d="M91.5 46.5L80.7 35.8l-.3-.4-16.1-15.9v-.1l-11.1-11v35.2l11.1 11V33.8l27.3 27.1-.1-14.3z"/><path id="XMLID_122_" class="st1" d="M164.7 21.6v30.6h10.6v-6.8l23 22.9.1.1 13.3-.1L165 22z"/><path id="XMLID_123_" class="st1" d="M228.2 8.7c-4 0-7.9 1.1-11.5 3.2l-.2.1 7.6 7.5.1.1.1-.1c1.3-.5 2.6-.8 3.9-.8 6.2 0 11.3 5.4 11.3 12.1 0 1-.2 2.1-.5 3.4v.1l8.2 8.2.1-.2c2.2-3.5 3.3-7.5 3.3-11.4.1-12.2-10-22.2-22.4-22.2z"/><path id="XMLID_124_" class="st1" d="M233.4 41.6l-.1.1c-1.6.9-3.3 1.3-5 1.3-6.2 0-11.3-5.4-11.3-12.1 0-1.6.3-3.1.9-4.6l.1-.1-8-7.9-.1.2c-2.6 3.7-3.9 8-3.9 12.5 0 12.2 10.1 22.2 22.5 22.2 4.5 0 8.8-1.3 12.5-3.8l.2-.1-7.5-7.4-.3-.3z"/><path id="XMLID_49_" class="st1" d="M195.5 13.3c-4-3.8-8.4-3.8-19.1-3.8h-11.1l9.9 9.9h5.7c4 0 5.3.1 6.5 1.4 1.4 1.4 1.5 3.4 1.5 3.8 0 1.3-.2 2.4-1.5 3.6-.5.5-1.1.8-1.8 1.1l-.3.1 7.4 7.3.1.1.1-.1c1-.5 1.8-1.1 2.6-1.9 3.9-3.7 4.4-7.6 4.4-11 .1-1-.1-6.4-4.4-10.5z"/></svg>