<?xml version="1.0" encoding="utf-8"?>
<!-- Generator: Adobe Illustrator 26.3.1, SVG Export Plug-In . SVG Version: 6.00 Build 0)  -->
<svg version="1.1" id="Layer_1" xmlns="http://www.w3.org/2000/svg" xmlns:xlink="http://www.w3.org/1999/xlink" x="0px" y="0px"
	 viewBox="0 0 32 32" style="enable-background:new 0 0 32 32;" xml:space="preserve">
<g>
	<path d="M28.1,4.12H3.91c-2.16,0-3.91,2.01-3.91,4.49v15.97c0,2.48,1.75,4.49,3.91,4.49H28.1c2.16,0,3.91-2.01,3.91-4.49V8.61
		C32.01,6.14,30.25,4.12,28.1,4.12z M26.19,7.05L16,14.58L5.82,7.05H26.19z M28.1,26.14H3.91c-0.75,0-1.36-0.7-1.36-1.56V8.7
		l12.67,9.35c0.02,0.01,0.04,0.02,0.05,0.03c0.02,0.01,0.04,0.02,0.06,0.03c0.1,0.06,0.2,0.1,0.3,0.14c0.01,0,0.02,0,0.03,0.01
		c0.11,0.03,0.23,0.05,0.34,0.05c0,0,0,0,0,0c0,0,0,0,0,0c0.11,0,0.23-0.02,0.34-0.05c0.01,0,0.02,0,0.03-0.01
		c0.1-0.03,0.2-0.08,0.3-0.14c0.02-0.01,0.04-0.02,0.06-0.03c0.02-0.01,0.04-0.02,0.05-0.03L29.46,8.7v15.89
		C29.46,25.44,28.85,26.14,28.1,26.14z"/>
</g>
</svg>
