<?xml version="1.0" encoding="utf-8"?>
<!-- Generator: Adobe Illustrator 26.3.1, SVG Export Plug-In . SVG Version: 6.00 Build 0)  -->
<svg version="1.1" id="Layer_1" xmlns="http://www.w3.org/2000/svg" xmlns:xlink="http://www.w3.org/1999/xlink" x="0px" y="0px"
	 viewBox="0 0 32 32" style="enable-background:new 0 0 32 32;" xml:space="preserve">
<path d="M16,0.4c-8.84,0-16,7.17-16,16c0,7.07,4.58,13.07,10.94,15.18c0.8,0.15,1.09-0.34,1.09-0.77c0-0.38-0.01-1.39-0.02-2.72
	c-4.45,0.96-5.39-2.15-5.39-2.15C5.9,24.09,4.84,23.6,4.84,23.6c-1.45-0.99,0.11-0.97,0.11-0.97c1.6,0.11,2.45,1.65,2.45,1.65
	c1.43,2.45,3.74,1.74,4.66,1.33c0.14-1.03,0.56-1.74,1.01-2.14c-3.55-0.4-7.29-1.78-7.29-7.91c0-1.75,0.62-3.18,1.64-4.3
	c-0.18-0.4-0.72-2.03,0.14-4.24c0,0,1.34-0.43,4.4,1.64c1.28-0.35,2.64-0.53,4-0.54c1.36,0.01,2.72,0.19,4,0.54
	c3.04-2.07,4.38-1.64,4.38-1.64c0.86,2.2,0.32,3.83,0.16,4.24c1.01,1.12,1.63,2.55,1.63,4.3c0,6.15-3.74,7.5-7.3,7.89
	c0.56,0.48,1.08,1.46,1.08,2.96c0,2.14-0.02,3.86-0.02,4.39c0,0.42,0.28,0.92,1.1,0.75C27.42,29.46,32,23.46,32,16.39
	C32,7.56,24.84,0.39,16,0.4L16,0.4z"/>
</svg>
