<?xml version="1.0" encoding="utf-8"?>
<!-- Generator: Adobe Illustrator 26.3.1, SVG Export Plug-In . SVG Version: 6.00 Build 0)  -->
<svg version="1.1" id="Layer_1" xmlns="http://www.w3.org/2000/svg" xmlns:xlink="http://www.w3.org/1999/xlink" x="0px" y="0px"
	 viewBox="0 0 32 32" style="enable-background:new 0 0 32 32;" xml:space="preserve">
<g id="Layer_2_00000041976347212303187500000012588124696806749063_">
	<g id="Layer_1-2">
		<path d="M24.43,2.74c2.67,0,4.84,2.17,4.84,4.85v16.8c0,2.68-2.17,4.85-4.84,4.85H7.67c-2.67,0-4.84-2.17-4.84-4.85V7.6
			c0-2.68,2.17-4.85,4.84-4.85l0,0H24.43 M24.43,0H7.67C3.49,0,0.1,3.4,0.1,7.6c0,0,0,0,0,0v16.8c0,4.2,3.39,7.6,7.57,7.6h16.75
			c4.18,0,7.57-3.4,7.57-7.6V7.6C32,3.4,28.61,0,24.43,0z"/>
		<path d="M16.05,10.79c2.87,0,5.2,2.33,5.2,5.21s-2.33,5.21-5.2,5.21s-5.2-2.33-5.2-5.21l0,0C10.86,13.12,13.18,10.79,16.05,10.79
			 M16.05,8.23c-4.28,0-7.75,3.48-7.75,7.77s3.47,7.77,7.75,7.77S23.8,20.29,23.8,16C23.79,11.71,20.33,8.23,16.05,8.23z"/>
		<path d="M25.16,5.49c-0.76,0-1.37,0.61-1.37,1.37s0.61,1.37,1.37,1.37c0.76,0,1.37-0.61,1.37-1.37S25.92,5.49,25.16,5.49z"/>
	</g>
</g>
</svg>
